<?xml version="1.0" encoding="UTF-8"?>
<svg width="1200pt" height="1200pt" version="1.1" viewBox="0 0 1200 1200" xmlns="http://www.w3.org/2000/svg">
 <path fill="#868F80" d="m1086.9 653.64c-1.6914-12.574-3.375-25.148-4.8281-37.375-5.9219-49.691-33.227-64.348-67.801-82.906-14.734-7.9219-31.441-16.895-50.215-30.105-56.988-40.172-88.801-32.348-132.84-21.52-10.094 2.4805-21.133 5.1992-33.68 7.6406-9.3086 1.8281-19.105 5.2383-29.148 9.8281 6.3867-7.8945 14.719-17.762 25.68-30.32 53.188-61 90.121-178.12 75.973-240.99-5.5195-24.52-11.602-48-16.973-68.707-7.4922-28.895-13.961-53.84-16.398-71.828-2.1328-15.691-5.3203-31.172-18.441-33.039-7.2227-0.98828-13.914 3.0938-16.66 9.3867-2.9219 5.2539-7 10.359-14.398 19.668-8.5859 10.746-21.52 26.988-41.719 54.934-21.133 29.254-71.066 83.32-115.13 131.01-23.105 25.012-43.945 47.586-58.785 64.559 0.26562-22.973 0.86719-53.922 1.1719-68.148 9.6797-4.0117 16.508-13.535 16.508-24.641v-45.281c0-14.707-11.961-26.668-27.293-26.668-14.707 0-26.668 11.961-26.668 26.668v45.281c0 12.426 8.5742 22.801 20.094 25.746-0.33203 16.172-1 50.066-1.2266 72.734-32.52-29.812-92.895-81.508-165.39-84.094-14.254-0.50781-29.094-1.2539-44.027-1.9727-74.188-3.625-144.39-7.1055-174.04 13.254-13.879 4.8281-38.961 29.359-56.281 137.27-15.492 96.535-12.199 103.27-0.375 108.51 11.133 4.9609 19.039-4.7617 23.238-10 0.96094-1.2148 1.9219-2.4531 2.8398-3.3594 14.027-14.055 33.801-29.16 62.961-21.332 34.652 9.332 151.49 67.492 188.52 89.188-4.0664-0.29297-8.1211-0.61328-12.586-0.8125l-14.066-0.70703c-63.934-3.332-124.23-6.4648-171.49 75.48-48.281 83.707-58.922 252.27-19.281 305.69 28.094 37.895 47.359 52.922 58.867 61.906 3.0547 2.3867 5.5352 4.2539 7.4531 6.1719 2.668 2.668 6.6523 4.1875 10.52 4.1875 2.0547 0 4.0781-0.42578 5.8398-1.332 9.8945-5.0273 8.7461-12.387 4.9336-36.734-6.0391-38.586-18.613-118.88 8.2812-156.73 31.105-43.773 95.309-86.84 137.72-101.19-37.762 44.852-78.281 108.64-79.867 207.83-1.1328 71.266 23.348 121.29 39.559 154.39 6.1875 12.652 11.535 23.602 13.453 31.602 2.7461 11.547 6.9219 29.012 22.441 29.012 6.8672 0 12.16-3.8672 17.762-7.9609 3.9609-2.8945 8.4414-6.1602 14.348-9.1211 18.293-9.1484 32.867-35.602 49.719-66.254 10.68-19.387 21.719-39.453 33.852-55.227 9.375-12.188 23.613-28.281 38.68-45.309 35.641-40.281 76.027-85.934 88.613-119.12 9.2383-24.359 12.734-64.973 8.3984-101.39 9.2812 2.6133 21.707 4.4258 41.094 7.1992 11.547 1.6523 25.84 3.6914 43.812 6.5195 53.867 8.3984 124.28-4.8516 175.73-14.586 22.199-4.1875 41.387-7.8125 53.613-8.6406 26.215-1.8281 33.332 14.812 43.188 53.199l1.4141 5.4922c0.19922 0.70703 20.719 68.746 43.535 68.746 0.74609-0.011719 1.4922-0.078126 2.2539-0.23828 6.4531-1.3086 12.32-7.4922 11-16.52 0.066406-1.9727 3.0391-8.293 5.4258-13.359 4.4922-9.5742 10.668-22.668 16.066-41.188 8.9844-30.684 2.2109-81.059-4.9492-134.39zm-437-366.21c44.574-48.254 95.094-102.95 117.16-133.49 19.812-27.453 32.535-43.387 40.945-53.945 1.0547-1.3203 2.0547-2.5586 3.0117-3.7734 3.0391 18.801 9.1992 42.547 16.238 69.68 5.3086 20.52 11.359 43.773 16.773 67.879 12.16 54.055-23.199 163.87-70.066 217.6-46.414 53.238-50.641 63.453-53.559 77.027-53.309 39.266-103.77 96.867-119.85 125.33-0.82812-0.41406-1.5586-0.78516-2.3594-1.1602 5.2148-10.078 11.84-24.32 19.215-40.227 10.52-22.652 27.027-58.133 36.16-71.895 1.7852 0.49219 3.6133 0.80078 5.4414 0.80078 7.7734 0 14.84-4.2812 18.441-11.172l20.668-39.613c5.2812-10.172 1.3203-22.746-8.8516-28.039-9.7852-5.0547-22.828-1.0273-28.012 8.8281l-20.668 39.613c-2.5469 4.9219-3.0547 10.547-1.3867 15.84 0.28125 0.90625 0.94531 1.6016 1.3477 2.4648-9.3477 13.148-21.973 39.586-38.84 75.867-4.8945 10.535-9.625 20.691-13.762 29.238 4.7344-30.867 11.039-79.641 16.785-124.08 3.6406-28.254 7.3867-57.199 9.5586-71.973 8-2.3086 14.266-8.9453 15.375-17.535l6.293-47.922c1.5742-11.68-6.6523-22.48-18.398-24.066-0.57422-0.078125-2.2383-0.1875-2.8281-0.1875-10.68 0-19.773 7.9883-21.188 18.602l-6.332 48.027c-1.0938 8.5078 3.0547 16.492 9.8945 20.828-1.8672 12.586-4.8125 35.227-9.5742 72.012-5.1484 39.84-11.172 86.453-15.828 117.75-1.1992-63.773-0.65234-192.62-0.41406-247.56l0.011719-4.1328c1.7188-0.87891 3.3086-2.0781 4.5469-3.7344 10.945-14.562 41.598-47.762 74.051-82.883zm-196.75 288.7c-0.1875-0.12109-17.973-10.895-35.801-24.266-18.973-14.227-165.39-88.453-207.39-99.762-36.309-9.7617-62.934 5.8281-78.039 18.309 1.3867-12.906 4.0117-32.48 8.7734-62.148 15.785-98.309 36.32-114.59 38.879-116.25 1.9062-0.45312 3.6797-1.332 5.2266-2.5469 20.148-16.133 96.895-12.348 158.57-9.3086 15.055 0.74609 30.012 1.4805 44.398 1.9883 67.602 2.4141 126.33 56.762 154.56 82.879 3.8398 3.5469 7.1328 6.5859 9.8516 8.9727 0.53516 0.46484 1.1875 0.65234 1.7734 1.0117l-0.011719 3.1055c-0.22656 51.281-0.64062 150.07 0 217.16-9.5859-50.801-23.625-119.73-31.039-147.52 2.8789-2.3867 5.2656-5.3203 6.8672-8.8281 2.8008-6.1055 3.0547-12.934 0.70703-19.215l-9.0781-24.387c-4.6797-12.602-19.773-19.48-32.281-14.785-6.3086 2.332-11.309 6.9727-14.105 13.078-2.7852 6.1055-3.0391 12.945-0.69141 19.199l9.0781 24.398c3.6016 9.6914 12.906 16.188 23.215 16.32 8.707 33.52 30.332 141.21 37.785 186.13-9.3867-9.0781-19.934-22.414-27.332-37.508-0.33203-0.74609-0.64062-1.4648-1.1055-2.1484-9.5742-20.266-26.719-52.027-39.414-69.254 1.293-2.4414 2.2148-5.0664 2.5742-7.8789 0.80078-6.1484-0.82812-12.254-4.6406-17.199l-21.199-27.547c-7.5586-9.7617-22.828-11.762-32.602-4.2148-4.9336 3.8008-8.0938 9.293-8.8945 15.453s0.85156 12.266 4.6406 17.16l21.199 27.559c4.4414 5.7461 11.148 9.0391 18.414 9.0391 2.4805 0 4.9062-0.44141 7.2383-1.2148 8 11.039 18.906 29.867 28.387 48.148-5.8516-1.7852-11.426-3.6523-17.133-5.6016-6.1484-2.0781-12.387-4.1875-19.078-6.1992-0.72266-0.74219-1.3633-1.5703-2.3086-2.1289zm-204.87 232.6c-30.625 43.094-21.309 120.97-14.508 165.8-9.8398-9.0273-22.32-22.254-38.238-43.707-30.762-41.465-24.867-196.99 20.973-276.46 39.105-67.812 86.691-65.32 147-62.188l14.254 0.71875c44.613 2.0117 65.785 9.1992 88.188 16.828 10.852 3.6797 22.078 7.4922 36.094 10.812 1.8398 0.44141 3.668 0.44141 5.4258 0.12109 5.625 9.3086 12.121 17.895 18.762 25.16-25.52 6.0938-57.281 19.066-88.254 45.945-47.469-3.8125-147.02 56.895-189.7 116.97zm373.11 24.668c-10.852 28.613-51.227 74.227-83.652 110.89-15.387 17.387-29.922 33.812-39.852 46.734-13.359 17.387-24.906 38.348-36.066 58.613-12.852 23.348-27.441 49.812-38.293 55.254-6.5078 3.2539-11.668 6.7617-15.707 9.668-0.29297-1.1484-0.625-2.4531-0.97266-3.9219-2.5859-10.895-8.5586-23.066-15.441-37.148-15.988-32.652-37.879-77.387-36.84-142.25 1.5352-96.16 41.465-154.51 80.32-198.91 44.398-50.746 94.828-62.387 122.31-64.668l10.012 2.7344c0.76172 0.21484 1.7617 0.35938 2.5352 0.42578 0.17187 0.011719 16.812 1.7188 40.094 21.148 20.809 17.387 27.516 99.332 11.555 141.43zm444.87-52.773c-4.6133 15.773-9.7461 26.973-14 36.012-4.7734-9.2383-9.7852-20.879-12.879-32.734l-1.3867-5.3867c-8.3086-32.359-19.398-76.668-70.84-73.172-13.812 0.94531-33.707 4.7188-56.746 9.0664-49.52 9.3594-117.39 22.172-166.64 14.426-18.121-2.8398-32.535-4.8945-44.16-6.5742-34.828-4.9883-41.602-6.1211-48.359-12.121-0.98828-0.86719-2.1484-1.3867-3.293-1.9219-4.8125-15.762-11.68-28.895-21.027-36.707-1.4414-1.2148-2.8008-2.1602-4.2148-3.2656 0.22656-0.33203 0.57422-0.53516 0.77344-0.89453 21.707-39.066 117.69-139.73 179.2-151.77 13.012-2.5352 24.453-5.3477 34.922-7.9336 42.613-10.453 64.039-15.762 111.11 17.441 20.094 14.16 37.547 23.535 52.961 31.801 33.055 17.746 49.668 26.652 53.934 62.559 1.4648 12.359 3.1719 25.066 4.8789 37.773 6.4688 48.219 13.16 98.086 5.7734 123.41z"/>
</svg>
