<?xml version="1.0" encoding="UTF-8"?>
<svg width="1200pt" height="1200pt" version="1.1" viewBox="0 0 1200 1200" xmlns="http://www.w3.org/2000/svg">
 <g fill="#868F80">
  <path d="m886.95 1156.9c-4.1328 15.375-13.895-5.2109-16.527-10.164l-0.60938-1.2188-0.47656-0.74219-0.88281-1.6328c-2.5703-4.1992-5.2109-8.4375-8.0625-12.664-5.625-8.5977-11.785-17.27-18.008-26.344-3.1211-4.6016-6.3008-9.0742-9.375-14.156-3.3203-5.418-5.9531-9.2812-8.7383-13.547-6.0273-7.7891-14.625-16.117-22.5-25.875l-5.1484-6.4297c-1.6328-2.3047-2.9805-4.8828-4.4727-7.3867-2.5-5.0469-4.4102-10.367-5.6875-15.852-0.92578-4.4961-2.125-8.9297-3.5938-13.277l-1.0117-2.4375c0-0.19531-0.27344-0.46875-0.47656-0.74219l-0.9375-1.2852c-1.3594-1.6953-2.4375-3.5234-3.9297-5.1484v0.003906c-14.645-13.809-30.957-25.73-48.562-35.492-19.859-12.176-38.012-26.938-53.98-43.895-12.871-13.68-24.254-28.586-35.766-43.547-0.082031 0.10547-0.15234 0.21875-0.20703 0.33984-1.4883 2.9453-3.1602 5.793-5.0039 8.5312-16.172 22.891-37.375 41.773-61.98 55.199-12.133 7.5-24.59 14.57-36.648 22.152-3.0469 1.875-6.0273 3.8516-9.0078 5.8203l-4.125 2.8125-0.54297 0.41406-1.0859 0.9375-2.1016 1.7617c-1.3516 1.2188-3.0469 2.5039-4.125 3.5898l-2.7109 3.3203c-2.082 2.4258-3.9844 5.0078-5.6875 7.7148-7.4414 14.586-16.754 28.141-27.703 40.312-6.5977 6.1914-14.09 11.352-22.219 15.309-7.832 3.7969-15.992 6.8828-24.375 9.2188-16.258 4.6875-31.969 7.3125-45.582 12.055-3.1953 1.0547-6.3008 2.3672-9.2812 3.9297-3.1875 1.6211-6.5078 3.4492-9.8242 5.3438-6.7031 3.8633-13.34 7.6602-19.914 11.445-13.406 7.5938-26.746 14.84-40.566 21.141-13.969 6.8789-28.949 11.473-44.371 13.613-4.4023 0.41797-8.8438 0.23438-13.199-0.54297-5.0859-0.87109-9.8633-3.0156-13.895-6.2344-3.9961-3.3047-7.0547-7.6016-8.8672-12.461-0.67188-1.7812-1.1914-3.6172-1.5586-5.4844l-0.60938-1.2188-0.47656-0.27344c-0.13281-0.60937-0.9375 1.2188-0.9375-1.4922 0-0.14062 0.33594-0.47656 0.33594-0.47656-0.13281-0.33594-0.33594-0.60937-0.46875-0.9375-2.2109-5.2773-3.5391-10.883-3.9258-16.594-0.40234-7.3984 1.5156-14.738 5.4844-21 4.125-6.5625 10.023-11.578 12.461-16.453 0.27344-1.2188 0.81641-1.8281 1.1523-3.4609 0.20703-1.8281 0.40234-3.75 0.60938-5.625 0.20703-1.875 0.46875-3.75 0.74219-5.7461 0.27344-1.9961 0.27344-4.1328 0.34766-6.2344 0.60937-8.3359 0.60937-17.539 1.1445-27.57 0.27344-5.0156 0.88281-10.359 1.4922-15.777 0.47656-2.7109 1.0234-5.4844 1.5547-8.2578l0.81641-4.2734 1.2852-4.1992c0.88281-2.8125 1.7617-5.6914 2.7109-8.5977 0.94531-2.9062 2.4453-5.5586 3.6641-8.4375s2.5703-5.5508 3.8633-8.4375c1.2109-2.5039 2.5703-4.9414 3.75-7.5859h-0.007813c4.7383-11.199 8.3711-22.836 10.836-34.746 2.9141-12.742 5.2109-26.625 9.0742-41.457h0.003907c3.7109-15.621 10.078-30.488 18.824-43.957 0.9375-1.6211 2.0352-3.1797 3.1211-4.7422v-0.003907c1.25-1.4297 2.6094-2.7656 4.0586-3.9922 2.5938-1.9453 5.4297-3.543 8.4375-4.7422l3.4609-1.3516 2.5039-1.0859c0.23437-0.19531 0.48437-0.375 0.75-0.53516 0.15234-0.41797 0.26562-0.85156 0.33594-1.293 0.28125-0.96094 0.50781-1.9336 0.67578-2.918 0.40234-2.1016 0.75-4.4609 1.1523-6.8984s0.80469-5.1562 1.3516-7.9961c0.41406-1.5547 0.68359-2.9141 1.2852-4.6016l-0.003907-0.003906c0.57422-1.6602 1.2344-3.2891 1.9688-4.8828 4.6797-9.8789 10.137-19.367 16.324-28.379 4.1289-5.7812 8.8398-11.121 14.062-15.938-2.6445-1.6875-5.2891-3.3203-7.8555-5.082l-4.9492-3.3203-2.5977-1.582-0.60938-0.47656-1.0117-0.67578-0.27344-0.27344-1.1523-0.9375c-3.0469-2.7109-5.9609-4.6875-9.1484-7.9219s-6.4297-6.5625-9.2734-9.7578c-2.6445-3.1797-5.3516-6.3672-8.0625-9.6172-2.7109-3.2539-5.082-6.3672-7.6602-9.6172-5.0703-6.3672-10.086-12.797-15.301-18.617-2.5117-3.1875-5.2109-5.5586-7.7891-8.3359-0.67578-0.60938-1.3594-1.3594-1.9688-1.875l-1.9609-1.4141-3.4609-2.6445v-0.003907c-8.4883-3.3828-17.746-4.3555-26.754-2.8125-12.008 2.0938-24.18 3.1133-36.367 3.0469-13.109-0.76562-25.727-5.2539-36.375-12.938-6.6289-4.5078-12.504-10.035-17.41-16.379-3.2461-4.4102-7.1367-8.3125-11.539-11.57l-0.60938-0.33594-0.60938-0.40234c-5.1953-3.3789-11.367-4.9258-17.539-4.3984-1.9688-0.074219-4.4727-0.14062-6.8438-0.34766-2.6562-0.22266-5.2812-0.67187-7.8594-1.3477l-3.2539-1.0234h-0.13281l-0.75-0.19531-1.4922-0.34766h0.003906c-0.24609 0-0.49609-0.023438-0.73828-0.066406-0.27344 0.066406-0.60938 0-0.75 0.066406-0.26172 0-0.51562 0.074219-0.74219 0.20703-0.27344 0-1.1523 0.54297-3.3203 1.3594h0.003907c-3.3047 1.1484-6.918 1.0234-10.137-0.34766-1.0156-0.48047-1.9883-1.0469-2.9062-1.6953-1.0508-0.85547-2.0234-1.793-2.9141-2.8125l-1.6211-2.1641v-0.003906c-1.3281-2.082-2.5078-4.2578-3.5273-6.5039l-1.4258-2.9141-0.33594-0.69531-0.47656-1.2188c-0.066407-0.20703-0.13281-0.54297-0.13281-0.54297l-0.46875-1.4258c-0.92969-2.7812-1.4766-5.6719-1.6328-8.5977-0.14453-2.5-0.125-5.0039 0.066407-7.5 0.44141-4.5312 1.2578-9.0195 2.4375-13.418 2.1836-8.1836 5.2539-16.109 9.1523-23.633 1.9922-3.9766 4.332-7.7695 6.9922-11.336l1.1523-1.4922 1.4141-1.4922 1.9688-2.0234 0.003906 0.003906c1.2969-1.4805 2.6992-2.8633 4.1992-4.1367 11.945-10.242 25.492-18.457 40.098-24.316 11.684-4.582 22.289-11.551 31.133-20.457 1.9766-2.1523 3.832-4.4102 5.5586-6.7695 1.6211-2.3047 3.3828-5.1484 4.6875-7.1797 3.2539-5.9609 5.418-10.695 8.0625-16.527 5.082-11.25 9.957-22.688 15.984-33.328 5.7422-10.902 13.844-20.387 23.711-27.762 2.6602-1.6523 5.4258-3.1367 8.2773-4.4336 2.8555-1.0234 5.7734-1.8594 8.7383-2.5117 2.9141-0.42578 5.8555-0.65234 8.8008-0.67578 2.9141 0.27344 5.2891 0.40234 8.5391 0.81641 2.3711 0.54297 4.5391 0.9375 6.9102 1.6211 0.13281 0 0.19531 0.066406 0.33594 0.066406h0.003906c7.4609 0.27734 14.875 1.2734 22.145 2.9805 5.8984 1.3594 11.785 2.9805 17.887 4.6133 2.9805 0.80469 6.0273 1.6875 9.1406 2.5039 1.4922 0.40234 3.0469 0.88281 4.6016 1.1523l4.6016 0.60938h0.003906c13.746 1.793 27.648 2.0625 41.457 0.80469 15.102-0.87109 31.875-2.6328 50.117-2.1016v0.003906c4.7031 0.046876 9.4023 0.38672 14.062 1.0195l7.2461 1.0117c2.4805 0.26953 4.9297 0.76563 7.3125 1.4922 2.1758 0.74219 4.3398 1.2852 6.5625 1.9688-2.9727-7.1172-6.8359-14.23-10.762-21.562-8.8477-14.332-14.316-30.492-15.992-47.25-0.14063-2.4648-0.046876-4.9375 0.26953-7.3867 0.41406-2.1016 0.81641-4.332 1.293-6.3672 1.0117-3.9297 2.1016-7.5938 3.0469-10.902 0.9375-2.9375 1.6172-5.9531 2.0273-9.0078 0.42969-1.8633 0.16406-3.8164-0.74219-5.4961-2.8789-5.6875-6.2305-11.121-10.02-16.246-4.582-6.6328-7.8477-14.082-9.6211-21.945-0.67578-3.6562-1.6328-7.2461-2.1016-10.977-0.20703-3.6562-0.46875-7.3125-0.74219-10.969 0.13281-3.5898 0.27344-7.1172 0.33594-10.633 0.066407-3.5156 0.60938-6.7773 0.9375-10.098 1.4258-13.211 3.3828-25.398 3.75-36.777v-8.4375c-0.27344-2.8125-0.53516-5.625-0.74219-8.3242l-0.41406-4.1328c-0.19531-1.3594-0.54297-2.6445-0.74219-3.9297-0.67578-2.5117-1.0117-5.1484-1.7617-7.6602h0.007813c-3.3086-9.8125-8.1875-19.023-14.445-27.273-1.5547-2.2422-3.0469-4.4727-4.6016-6.7109-3.3867-4.9609-6.5078-9.9766-10.023-14.852-8.8789-12.395 1.9609-16.191 14.289-18.02l7.0508-1.2188 4.1914-0.40234h-0.003906c5.6172-0.28906 11.246 0.007813 16.801 0.89062 5.1836 0.86719 10.285 2.1797 15.242 3.9297 4.5391 0.81641 9.375 1.6875 14.766 2.7109v-0.003906c15.898 4.0078 30.863 11.07 44.062 20.793 1.9609 1.4141 4.0586 2.8125 5.9609 4.4062s3.75 3.4492 5.625 5.2773l0.003906 0.003907c4.0898 3.5664 7.8125 7.5352 11.109 11.848 3.3203 4.4062 7.3203 9.2148 10.359 13.754 3.0391 4.5391 6.375 9.375 9.7578 14.289 15.07 21.957 33.41 41.484 54.375 57.906 5.3516 4.7422 12.328 9.8242 18.496 15.938 6.7305 6.4062 12.523 13.727 17.203 21.75 5.7422 9.5508 7.8789 20.84 6.0312 31.828-0.61328 2.9258-1.5 5.7852-2.6445 8.543-1.3125 2.6211-2.7578 5.1758-4.332 7.6484-1.1562 1.3516-2.3086 2.7734-3.4609 4.2656l0.14062 0.14062c0.066407 0 2.7109 2.4375 2.7109 2.4375 3.75 3.2422 7.0391 7.3789 10.695 11.109 7.3633 8.1836 13.625 17.289 18.629 27.094 1.4609 2.457 2.6406 5.0664 3.5273 7.7812 1.0117 2.7109 2.1016 5.418 3.1133 8.2031 1.6953 5.4844 2.7109 11.25 4.1328 16.996l1.2188 12.055v0.003906c8.3633-5.5938 17.34-10.207 26.754-13.754 6.3867-2.4531 12.926-4.4883 19.578-6.0938 3.4883-1 7.0391-1.7695 10.629-2.3047 3.5898-0.46875 7.0391-0.74219 10.359-0.87109v-0.003906c5.7812-0.007813 11.555-0.41797 17.277-1.2188 3.9453-0.38281 7.6328-2.1328 10.426-4.9492l0.41406-0.47656 0.67578-0.60938c0.92969-0.90234 1.707-1.957 2.2969-3.1133 0.88281-1.793 1.6328-3.6484 2.2383-5.5508 1.3594-4.1992 2.4375-9.2148 4.0703-14.297 1.5273-5.7734 4.0664-11.227 7.5-16.113l1.6328-2.0352 1.3516-1.4258 2.8125-2.8125c1.8281-1.875 3.9297-3.5234 5.8203-5.2891h-0.003906c8.2344-7.6523 18.703-12.469 29.871-13.742 5.8242-0.46094 11.676 0.46484 17.07 2.7109 4.8164 2.0312 9.3281 4.7188 13.406 7.9844 12.652 11.723 23.781 24.988 33.121 39.488 7.5586 11.844 16.777 22.543 27.367 31.773 21.188 14.191 41.23 30.02 59.945 47.344 4.1094 4.1914 7.7461 8.8242 10.836 13.816l2.2305 3.75c0.54297 1.4258 1.1523 2.8125 1.6953 4.1328l0.003906 0.003906c1.0195 2.4922 1.8789 5.0469 2.5664 7.6484 0.44531 1.3945 0.76172 2.8242 0.9375 4.2773l0.33594 2.3633 0.003906-0.003906c0.0625 0.9375 0.0625 1.8789 0 2.8125-0.125 3.6758-1.7695 7.1328-4.5391 9.5469-1.2383 0.94531-2.5312 1.8281-3.8633 2.6406-0.81641 0.47656-1.2188 0.75-1.2852 0.9375-0.074218 0-0.14062 0.13281-0.14062 0.19531v0.003906c-0.007813 0.42969 0.015624 0.85938 0.066406 1.2852 1.1133 5.6406 2.7031 11.18 4.7539 16.555 1.4922 4.1445 2.7461 8.375 3.75 12.664 0.61719 2.7734 0.92969 5.6016 0.9375 8.4375-0.066406 2.9141-0.27344 5.625-0.54297 8.6055v0.003907c-1.7812 13.578-6.5859 26.586-14.062 38.062-2.293 3.3828-4.8281 6.5977-7.5859 9.6172-2.7109 2.9141-5.2891 5.9609-8.3359 8.9453h0.003906c-6.5234 6.3477-13.621 12.082-21.199 17.125-4.0586 2.8125-8.3242 5.4297-12.871 7.9297 1.6953 0.13281 3.4609 0.20703 5.2227 0.40234v0.003906c20.59 2.9922 40.711 8.6172 59.867 16.734 18.383 7.707 35.473 18.191 50.672 31.086 14.586 12.453 26.715 27.52 35.758 44.43 1.9688 4.1992 4.0703 8.4375 5.7578 12.664 1.4258 4.3398 3.3203 8.4375 4.4062 12.938 2.6445 8.8789 3.8633 17.551 5.5586 25.133v0.003906c0.66797 3.707 1.6367 7.3555 2.9062 10.902l1.7617 5.082c0.46875 1.4258 1.1523 2.7734 2.0352 3.9922 4.3125 5.9219 9.1133 11.473 14.352 16.594 6.2188 6.043 11.434 13.039 15.441 20.73 2.0469 4.5273 3.043 9.457 2.9141 14.426 0.0625 4.2656-0.27734 8.5273-1.0117 12.73-0.85938 4.4883-2.3633 8.8242-4.4727 12.875-2.3555 4.2461-5.6172 7.9219-9.5508 10.77-7.3203 4.9062-15.98 7.418-24.789 7.1836-14.238-0.63281-28.293-3.4805-41.652-8.4375-3.1211-1.0859-6.168-2.1758-9.2148-3.2539l-4.4727-1.6328c-1.3242-0.51562-2.6797-0.94531-4.0586-1.2852-5.4648-1.4844-11.035-2.5469-16.66-3.1758-22.426-2.8125-45.254 1.1445-67.602-3.3945h-0.003907c-9.8008-2.0312-19.113-5.9414-27.43-11.512 1.0859 2.8125 2.1016 5.625 3.0469 8.4375 4.3242 12.684 7.9648 25.594 10.902 38.672 1.5664 6.168 2.9805 12.133 4.8086 17.277 1.7969 5.0977 4.2344 9.9453 7.25 14.43 3.168 4.625 6.582 9.0781 10.227 13.34 1.8359 2.1641 3.668 4.332 5.4922 6.5078 2.0234 2.2305 3.9922 4.4609 5.8867 6.8359l0.003906-0.003906c15.18 17.559 25.316 38.906 29.324 61.773 1.2227 11.062-0.21484 22.254-4.1914 32.652-1.0859 2.4375-2.1016 4.875-3.1211 7.2461-1.2188 2.1641-2.4375 4.332-3.6562 6.4297-2.3711 4.3398-5.082 7.9961-7.5859 11.852-5.082 7.3203-10.227 14.062-14.223 20.625-2.0469 3.1289-3.8789 6.3867-5.4922 9.7578l-0.67578 1.2109c-0.26172 0.61719-0.066407 0.14062-0.40234 0.9375-0.37891 1.0391-0.80859 2.0547-1.293 3.0469-0.80469 1.875-1.6875 3.5898-2.5039 5.418-11.645 23.488-24.977 46.098-39.891 67.66-5.8984 8.4375-12.262 16.32-18.422 24.449-2.3047 3.1211-5.1484 7.6602-9.0742 8.8789-1.1719 0.42969-9.9766 0.89844-9.9766-1.6875zm88.727-505.22c-0.066406 0-0.20703-0.40234-0.20703-0.46875-0.058594-0.22266-0.078125-0.45312-0.066406-0.68359-0.17969-0.25391-0.33594-0.52344-0.46875-0.80859-2.4609-3.2539-5.6758-5.8633-9.375-7.5938-8.6836-4.1758-17.73-7.5508-27.027-10.086-5.8867-1.6953-11.043-3.1875-15.309-4.6016 2.6445 2.0234 5.4844 4.332 8.6719 6.8438 6.8438 5.4766 14.898 12.383 23.633 18.824 1.0859 0.74219 2.2422 1.5547 3.2539 2.2305l1.5547 1.0234c0.47656 0.27344 0.60937 0.19531 0.88281 0.40234l0.27344 0.27344 1.0117 0.40234 0.75 0.27344c0.81641 0.066406 1.6211 0.066406 2.4375 0.14062v-0.003906c3.3789 0.085937 6.668-1.0977 9.2148-3.3164 0.26172-0.26953 0.46875-0.58984 0.60938-0.9375 0.13281-0.27344 0.066406-0.67578 0.19531-0.066406 0.14062 0.27344 0-0.40234 0-0.74219zm-61.5-14.156c-4-4.4805-6.7148-9.957-7.8555-15.852 0.74219-7.9883 29.465-5.8203 35.016-5.5508 11.34 0.50391 22.523 2.8398 33.121 6.9102 7.7773 2.8906 14.52 8.0273 19.367 14.766 0.75 1.1523 1.4258 2.2305 2.0352 3.3828 0.54297 1.293 0.9375 2.6445 1.3594 3.9297 0.48047 1.4531 0.82031 2.9492 1.0117 4.4688l0.13281 1.2188c0.11719 0.58203 0.14062 1.1758 0.074219 1.7656 0.0625 3.2891-0.53516 6.5625-1.7617 9.6172-1.1172 2.8047-2.75 5.3789-4.8086 7.5859-6.9609 7.3086-16.832 11.109-26.898 10.359-2.2383-0.10547-4.457-0.42187-6.6367-0.9375l-0.87109-0.19531-0.20703-0.066406c-0.066406 0-1.6328-0.47656-1.6328-0.47656l-0.26172-0.13281-1.0859-0.54297-1.0859-0.47656-1.6875-0.9375c-1.0117-0.67578-2.3047-1.4258-3.1133-1.9609l-2.1016-1.6328c-1.3477-1.0156-2.6367-2.1016-3.8633-3.2539-4.8633-4.3906-9.4766-9.0469-13.82-13.949-1.0859-0.41406-2.2422-0.81641-3.5234-1.3516-18.355-8.0781-36.102-17.48-53.102-28.125-13.559-8.1641-27.652-15.406-42.188-21.676-0.27344-0.13281-0.54297-0.20703-0.81641-0.33594-23.84 9.7578-47.953 21.945-73.219 33.863-14.492 6.7773-29.598 13.414-45.449 19.172 13.754 2.1641 27.301 4.8086 39.965 7.8555 4.2656 1.0234 7.7266 2.0352 11.914 3.0469l12.469 3.8633c8.1953 2.6445 16.453 4.6875 24.254 7.9961 7.8477 3.0469 15.637 6.0938 23.297 9.0742 7.4453 3.5898 14.832 7.1055 22.078 10.633l5.4844 2.6445 5.1484 3.0469c3.3828 2.0352 6.7773 3.9922 10.164 6.0273 3.3828 2.0352 6.7031 3.9922 10.098 5.9609 3.3203 2.3633 6.6289 4.6875 9.957 7.0391 12.527 9.7734 23.059 21.871 31.012 35.625 0.54297 0.9375 1.0234 1.9688 1.5547 2.9805 2.6445 2.4375 5.2227 4.8086 7.8672 7.3203v0.003906c1.6094 1.5 3.3047 2.9023 5.082 4.1992 1.6289 1.4414 3.375 2.75 5.2109 3.918 7.4961 5.1133 15.992 8.5781 24.93 10.164 18.695 3.6562 41.043-0.53516 66.508 1.875h-0.003906c6.5586 0.65625 13.059 1.8086 19.445 3.4492 1.6562 0.39062 3.2812 0.89062 4.875 1.4922l4.4727 1.5547c2.9141 0.9375 5.8984 1.9688 8.9336 2.9805 11.691 4.1836 23.961 6.5391 36.375 6.9766 5.2656 0.21094 10.473-1.207 14.906-4.0586 3.9062-3.25 6.4062-7.8867 6.9727-12.938 0.44922-3.1055 0.65234-6.2383 0.60937-9.375 0.17188-2.5469-0.32031-5.0898-1.4219-7.3867-3.3086-5.8203-7.4648-11.117-12.328-15.715-6.1484-5.8398-11.746-12.234-16.727-19.098-1.3984-2.0742-2.5586-4.3008-3.4609-6.6367l-2.2969-6.4414c-1.5195-4.1172-2.7031-8.3516-3.5312-12.664-1.9609-8.4375-3.1875-16.387-5.4844-23.773-0.9375-3.75-2.6445-7.5-3.9297-11.316-1.4922-3.75-3.3203-7.2383-5.082-10.902-8.0117-14.734-18.691-27.848-31.5-38.672-13.797-11.48-29.258-20.797-45.852-27.641-17.582-7.3828-36.043-12.457-54.93-15.102-19.691-2.4453-39.66-1.4141-58.996 3.0469-2.4375 0.47656-4.9414 1.2188-7.3867 1.875-5.5508 1.6328-11.176 3.2539-16.93 4.875-1.2188 0.41406-2.3711 0.75-3.5156 1.0859 11.176 6.0938 20.719 12.328 29.117 17.887 14.297 9.707 25.535 17.496 34.547 23.637zm73.762 347.88c2.8477-7.9609 3.7734-16.477 2.7109-24.863-3.9609-19.547-13.082-37.672-26.422-52.5-1.6953-2.1016-3.5234-4.1328-5.418-6.2266-1.9609-2.2422-3.9297-4.4727-5.8867-6.7773-4.1836-4.7188-8.0938-9.6719-11.719-14.832-3.8867-5.6719-7.0391-11.82-9.375-18.289-2.4453-6.5078-3.9297-12.73-5.625-19.031-2.9453-12.5-6.5195-24.844-10.707-36.984-4.3398-12.5-9.7539-24.602-16.18-36.168-6.7734-11.516-15.684-21.633-26.25-29.805l-8.5391-5.8867c-3.1797-1.875-6.3672-3.75-9.6094-5.625-3.2422-1.875-6.4414-3.8633-9.6953-5.7578l-4.875-2.8125-5.1484-2.5039c-6.9062-3.2578-13.883-6.5742-20.926-9.957-7.3203-2.8125-14.699-5.6914-22.219-8.6055-7.3867-3.1133-15.242-5.0078-23.102-7.5859-3.9297-1.1445-7.6484-2.3711-11.652-3.5898-4.0586-0.9375-7.7148-1.9609-11.852-2.9062l0.003906 0.003906c-32.926-7.8984-66.602-12.262-100.45-13.023-1.375 0.14062-2.7539 0.21094-4.1328 0.20703 0.11328 0.11719 0.25 0.20703 0.40234 0.27344 6.4414 5.082 12.805 9.8164 18.422 14.633 5.6172 4.8203 10.836 9.543 15.852 13.949 4.8086 4.5391 9.375 8.8047 13.754 12.871 17.203 16.258 30.336 28.781 40.836 37.648 5.3516 4.3398 9.6172 8.4375 13.414 11.457 3.7969 3.0195 6.8359 5.4844 9.1406 7.5859 4.6016 4.1992 6.3008 6.7695 5.625 7.9883s-3.5898 1.0234-9.6172-1.1445c-2.9805-1.0859-6.7773-2.7109-11.445-4.8828-4.668-2.1758-9.6172-5.6914-15.789-9.543-15.691-10.703-30.648-22.449-44.766-35.156-20.793-19.289-43.258-36.699-67.125-52.023-0.98437 2.6367-2.1133 5.2148-3.3828 7.7266 5.625 10.969 10.902 21.402 15.777 31.426 0.27344 0.33594 0.54297 0.60938 0.81641 1.0117 19.434 28.996 29.961 63.043 30.281 97.949 0.33984 11.938-1.1445 23.859-4.3984 35.352-0.47656 1.5547-0.9375 3.0469-1.3594 4.6016 14.062 18.148 27.188 35.973 41.391 51.141v0.003906c14.84 15.711 31.668 29.418 50.055 40.77 19.262 10.719 37.008 23.961 52.762 39.375 1.875 2.1016 3.5156 4.6875 5.2773 6.9766l1.293 1.7617h0.003907c0.59766 0.74219 1.0977 1.5625 1.4805 2.4375l1.875 4.5391c1.6992 5.082 3.1016 10.266 4.1992 15.516 1.5703 8 5.293 15.426 10.773 21.469l0.27344 0.27344 0.13281 0.27344c6.9102 8.7383 15 16.52 22.961 26.758 3.4609 5.2773 7.0391 10.836 9.5547 15 2.7109 4.4727 5.8867 9.0742 8.8047 13.547 6.0938 9.0078 12.262 17.812 18.02 26.82 2.9141 4.4062 5.6914 9.0078 8.4375 13.547l1.7617 3.1875 0.13281 0.27344 0.27344 0.67578c0.13281 0.88281 0.46875-0.14062 0.74219-0.27344l0.27344-0.33594 0.88281-1.0859c1.4258-1.875 2.9141-3.7969 4.332-5.6914 5.832-7.5 11.316-14.691 16.125-21.945l-0.019532-0.007812c9.3203-13.059 15.676-27.988 18.629-43.754 1.0195-7.2031 1.2031-14.496 0.54297-21.742-0.75-7.1172-2.6445-14.352-3.8633-21.262h0.003906c-1.2227-6.8164-2.918-13.539-5.082-20.117-2.0352-6.4414-3.4609-12.805-5.7578-18.75-7.5039-21.23-16.27-41.992-26.25-62.176-4.4727-8.6055-8.2695-16.875-12.395-24.113s-7.8672-13.883-11.25-19.977c-7.2461-11.859-13.199-21.336-17.812-28.855-9.957-14.43-13.883-21.336-13.004-22.078 0.88281-0.74219 6.5625 4.6875 18.355 18.148 5.5508 6.9102 12.461 15.938 20.625 27.637 3.7969 5.8867 8.0625 12.461 12.664 19.574 4.6016 7.1172 8.8789 15.309 13.82 23.973h0.003906c11.156 20.246 20.91 41.23 29.191 62.812 2.5781 6.0938 4.2656 12.73 6.5625 19.434 2.4141 6.8906 4.3828 13.926 5.8984 21.066 1.4141 7.5 3.5898 14.766 4.6016 23.023 0.95312 8.0352 0.95312 16.156 0 24.188 2.2305-4.5391 4.3984-9.1484 6.6367-13.949 0.74219-1.6328 1.4258-3.3281 2.1641-5.0156 0.33594-0.81641 0.67578-1.6953 0.9375-2.3711h0.003906c0.16016-0.63281 0.39062-1.2461 0.68359-1.8281l0.67578-1.4258c1.7773-3.9336 3.7891-7.7539 6.0273-11.445 4.332-7.5859 9.375-14.492 14.156-21.742 2.2305-3.5898 4.8086-7.1797 6.7031-10.977 1.0117-1.8203 2.0352-3.75 3.0469-5.5508 0.76172-2.0547 1.5-3.957 2.3164-5.9141zm-1.6328-561.71c1.4258-1.5547 1.2188-2.7109-0.066407-7.0391l0.003907-0.003906c-0.70703-2.1484-1.543-4.2539-2.5039-6.3008l-1.293-2.9141-1.7539-2.8125c-2.793-4.0469-5.9922-7.7891-9.5547-11.176-8.3555-7.832-17.277-15.039-26.691-21.562-10.152-7.1719-21.133-14.223-32.914-22.754-12.141-9.9258-22.75-21.59-31.492-34.613-8.6797-13.004-18.891-24.918-30.41-35.492-4.9805-4.4531-11.488-6.8047-18.16-6.5625-7.2852 1.1367-14.035 4.5273-19.293 9.6953-1.5 1.4922-3.1875 2.8125-4.6133 4.3984l-2.2305 2.3047-1.1523 1.1523-0.60938 0.88281v-0.003906c-2.0859 3.1992-3.6172 6.7227-4.5391 10.426-1.293 4.3398-2.3047 9.1484-4.0039 14.57-0.86328 2.9297-1.9727 5.7812-3.3086 8.5312-1.7305 3.4414-4.1016 6.5195-6.9844 9.0742-2.6016 2.7305-5.6484 4.9961-9.0078 6.7031-3.5508 1.6875-7.3086 2.8945-11.176 3.5898-6.5938 0.99609-13.246 1.5391-19.914 1.6211-3.0469 0.20703-5.8867 0.41406-8.5312 0.75-2.6445 0.33594-4.9414 1.0859-8.1953 1.875h0.003906c-6.0117 1.4883-11.918 3.3672-17.684 5.625-11.57 4.2188-22.246 10.566-31.48 18.715-4.4453 4.4609-8.5859 9.2109-12.402 14.223-3.6133 5.3867-6.75 11.074-9.375 17.004-2.7812 6.1914-5.1133 12.574-6.9766 19.098-1.5547 6.8438-3.3203 13.68-4.3398 20.926-2.4297 14.363-3.75 29.465-5.3438 45.254-1.3789 16.527-3.9375 32.941-7.6602 49.105-4.043 17.879-12.23 34.559-23.906 48.691 0.14062 1.6953 0.27344 3.4609 0.27344 5.2227 0.14062 2.5039 0 5.0078-0.066406 7.5859 10.258-6.5938 19.777-14.27 28.398-22.895 9.4141-9.4648 17.961-19.758 25.535-30.75 10.996-15.969 21.059-32.559 30.141-49.688 14.062-25.875 20.25-35.691 22.961-34.547 2.4375 1.0234 1.0117 12.602-9.957 40.707-7.4492 18.852-16.676 36.953-27.562 54.055-7.8203 12.25-16.832 23.695-26.906 34.172-3.6641 3.7969-7.7266 7.5-11.992 11.25 4.6875-2.1641 9.207-4.332 13.613-6.3672v0.003907c17.809-8.0898 35.152-17.168 51.949-27.188 13.035-7.5273 24.73-17.164 34.609-28.52 7.2852-9.1953 13.57-19.137 18.75-29.664 1.2188-2.3711 2.3047-4.6875 3.3203-6.8438-1.5586 0.70312-3.168 1.293-4.8086 1.7617-2.5469 0.83203-5.1836 1.3555-7.8555 1.5586-1.6953 0.12109-3.3984 0.078125-5.082-0.13281-2.1562-0.32031-4.2539-0.94922-6.2266-1.875-2.2617-1.2305-4.2422-2.9141-5.8203-4.9492-0.74219-0.99609-1.4219-2.0352-2.0352-3.1133-0.44141-0.96094-0.80469-1.9609-1.0859-2.9805-1.5-5.7031-1.5195-11.695-0.066407-17.41 0.98438-4.4844 2.2734-8.8945 3.8633-13.199l1.1523-3.1211 0.53516-1.4922 0.47656-1.2188 0.33594-0.74219c0.75-1.7617 1.5547-3.5898 2.3047-5.3516 1.6211-3.75 3.2539-7.5 4.8086-11.043h0.003906c3.2109-7.2539 6.8516-14.312 10.902-21.133 4.0742-7.293 9.7461-13.57 16.594-18.355 3.2539-2.1016 8.2578-6.5625 12.328-6.168 5.5469 1.7461 10.617 4.7344 14.832 8.7383 2.8008 2.9102 4.7227 6.5547 5.5508 10.508 0.61328 2.9844 0.73047 6.0508 0.34766 9.0742-1.0234 7.5-4.4727 14.691-5.8984 22.211-1.1406 8.1797-2.9766 16.246-5.4844 24.113-2.3398 6.1133-5.3828 11.934-9.0742 17.344-0.60938 0.88281-1.3594 1.7617-2.0352 2.6445-2.2656 9.2031-5.1836 18.23-8.7383 27.016-4.7305 12.148-10.992 23.645-18.629 34.211-2.3047 2.9805-4.9414 5.8984-7.5859 8.9453-1.3594 1.5547-2.7109 3.0469-4.0586 4.6875-1.5664 1.3594-3.1875 2.8125-4.8086 4.1328-2.5117 2.1016-5.082 4.4062-7.7266 6.5625 3.0469-1.6953 6.0273-3.3203 9.0078-4.875 8.8047-4.7422 17.672-8.7383 25.668-12.402 7.8555-3.6562 15.309-7.0391 21.945-10.5 6.9766-3.2422 12.73-6.9766 18.422-10.219h0.007812c2.6445-1.625 5.1953-3.3906 7.6484-5.2891 2.375-1.5898 4.6602-3.3047 6.8438-5.1445 1.9688-1.875 3.9297-3.6562 5.7578-5.418v-0.003906c1.8789-1.543 3.582-3.293 5.082-5.2109 2.8125-3.6562 5.7578-6.8438 8.0625-10.098 0.46875-0.74219 0.88281-1.4258 1.3516-2.1641-2.2969 3.75-17.812 5.9609-21.938 5.625-15.992-1.1523-4.7422-21.562-0.88281-28.727 2.9922-7.0273 5.5703-14.227 7.7148-21.562 4.6328-12.535 10.535-24.562 17.613-35.895 2.3008-3.707 4.9766-7.1641 7.9883-10.312 2.0312-2.1797 4.3828-4.0273 6.9766-5.4844 0.91406-0.57031 1.8906-1.0234 2.9141-1.3516 1.2266-0.44531 2.5-0.73828 3.7969-0.88281 1.5625-0.15625 3.1367-0.11328 4.6875 0.13281 1.6953 0.4375 3.332 1.0664 4.8867 1.875 3.8086 2.3711 6.7148 5.9492 8.2578 10.164 5.0273 12.312 5.4102 26.031 1.0781 38.605-1.5039 4.8203-3.4961 9.4727-5.9531 13.883-4.582 7.9531-10.438 15.102-17.336 21.16-1.4922 1.2852-2.9141 2.4375-4.4062 3.5898-0.19141 0.61719-0.34766 1.2422-0.46875 1.875-0.60938 1.4141-1.2188 2.9141-1.875 4.5391-1.4258 3.2539-2.9805 6.7773-4.6875 10.773-2.0352 3.8516-4.8086 7.7891-7.6484 12.254v-0.003906c-1.5 2.3516-3.2461 4.5312-5.2109 6.5078-1.875 2.1641-3.9297 4.332-6.0391 6.7031-2.3086 2.2656-4.75 4.3906-7.3125 6.3633-2.5742 2.332-5.2891 4.5039-8.1289 6.5078-2.1641 1.4258-4.4727 2.9062-6.7031 4.4062 11.305-4.4727 21.883-9.0078 31.875-12.938 11.988-4.3906 23.742-9.3984 35.215-15 7.9766-3.8984 14.902-9.6602 20.184-16.801 3.6289-5.6094 6.3516-11.754 8.0625-18.215 0.9375-3.2539 1.6328-6.168 2.2422-8.8125-6.7773-0.33594-15.242-0.60938-13.82-9.2734 2.332-8.6562 6.0352-16.887 10.969-24.375 5.582-10.078 11.945-19.703 19.031-28.789 4.5391-5.9375 9.793-11.289 15.645-15.938 0.9375-0.67578 1.875-1.3516 2.9141-1.9609 1.2188-0.68359 2.3711-1.3594 3.75-1.9688h0.003906c1.7344-0.66016 3.5273-1.1602 5.3516-1.4883 2.6211-0.36328 5.2891-0.10547 7.793 0.75 2.7148 0.95703 5.1562 2.5664 7.1055 4.6875 1.3047 1.6289 2.375 3.4297 3.1875 5.3516 0.60938 1.4531 1.1055 2.9453 1.4883 4.4727l0.67578 3.8633c0.28906 2.9453 0.38281 5.9102 0.27344 8.8672l-0.066406 2.1016v1.0234l-0.13281 1.2852-0.074218 0.20703-0.066406 0.46875c-0.20703 1.2188-0.33594 2.1641-0.67578 3.6562-0.47656 1.875-1.0859 3.6562-1.7617 5.4844v-0.003906c-0.56641 1.4766-1.2461 2.9062-2.0312 4.2734-1.3242 2.4727-2.8203 4.8438-4.4727 7.1094-5.9336 7.6211-13.125 14.172-21.262 19.375-7.457 4.8477-15.746 8.2695-24.453 10.09 0.14062 3.8867 0.027343 7.7773-0.33594 11.652-1.6016 20.125-13.312 38.059-31.098 47.617-11.773 6.6133-23.941 12.492-36.441 17.605-13.34 5.8203-28.172 12.73-45.375 19.574 2.3008 0.24609 4.582 0.63281 6.8359 1.1523 5.1211 1 10.168 2.3359 15.113 3.9961 12.121-3.5898 23.699-6.7695 34.613-9.8164 1.0781-0.34766 2.1641-0.61719 3.3086-0.9375 8.7461-2.4453 17.277-4.8828 25.199-7.4531 18.488-5.4844 36.199-13.316 52.695-23.309 6.7695-4.2461 13.16-9.0703 19.098-14.418 2.8125-2.5117 5.3516-5.3516 7.9297-7.8672l0.003906 0.003906c2.3477-2.293 4.5195-4.7617 6.4961-7.3789 3.0703-4.1641 5.6602-8.6641 7.7227-13.406-2.3047 2.2305-4.6016 4.0586-6.6367 5.6797-12.262 8.6055-18.422 10.773-18.965 10.031-0.74219-1.0234 4.6016-5.082 15-14.699 2.8594-2.6914 5.4648-5.6406 7.7812-8.8125 2.7812-3.5195 4.457-7.7812 4.8086-12.254 0.26562-5.9102-0.074219-11.836-1.0117-17.68-1.3906-7.5-1.9844-15.129-1.7617-22.754-0.15234-3.5195 0.95703-6.9805 3.1211-9.7578 1.0703-1.2969 2.3359-2.418 3.75-3.3203 0.53906-0.33594 1.0586-0.69922 1.5547-1.0977zm-42.395 12.871c1.5547-1.875 6.2266-7.8555 5.0078-10.5-0.19922-0.63672-0.65625-1.1641-1.2617-1.4453-0.60156-0.28516-1.2969-0.30078-1.9141-0.046875-3.5898 1.0859-8.6055 7.5-10.098 8.9453-8.2578 8.6719-15.508 17.27-21.742 24.32-3.5234 3.9297-6.7031 7.4453-9.6172 10.426v-0.003906c1.2461-0.42578 2.4648-0.92578 3.6562-1.4922 0.25781-0.34766 0.65625-0.56641 1.0859-0.60938 0.097656 0 0.19141 0.023438 0.27344 0.078126 5.9453-2.9297 11.5-6.5977 16.527-10.914 6.5664-5.7031 12.617-11.977 18.086-18.742zm-85.957 18.148c1.2266-2.9141 6.6367-17.336 3.75-20.117-3.0469-2.8125-6.375 4.1992-7.7266 6.168-5.625 8.1289-10.773 16.453-15.938 24.852-5.8867 9.6172-10.633 17.277-14.289 22.285h0.003906c-0.36328 0.91406-0.66016 1.8555-0.88281 2.8125 7.9648-3.7852 15.172-8.9961 21.262-15.375 5.8203-5.9805 10.5-12.969 13.82-20.625zm-60.617 141.18c-2.8125-0.20703-5.625-0.27344-8.5312-0.47656v-0.003906c-5.1445 0.23047-10.262 0.85938-15.312 1.875-24.75 6.0234-48.773 14.703-71.66 25.887-13.34 5.6797-27.496 11.852-43.352 16.875-15.637 5.2148-32.012 7.8906-48.496 7.9297 0.33594 0.88281 0.60938 1.6875 0.9375 2.5703l0.13281-0.80469v-0.003906c11.16 1.8633 22.504 2.4062 33.797 1.6211 12.371-0.77734 24.629-2.8672 36.562-6.2344 22.602-6.6445 44.605-15.188 65.773-25.535 16.82-7.9219 33.422-16.117 50.148-23.699zm-8.3359-152.27c1.8203-6.8906 2.1914-14.082 1.0859-21.121-0.46875-3.2539-2.1016-6.6484-3.8633-7.2578h0.003906c-0.37109-0.21484-0.79297-0.33203-1.2188-0.33594-0.23047 0.007813-0.45703-0.011718-0.67578-0.066406-0.20703 0.066406-0.20703 0.13281-0.33594 0.13281l-0.003906-0.003907c-0.14063 0.035157-0.27734 0.082032-0.41016 0.14063l0.14062-0.14063-2.5703 0.41406-0.20703 0.20703c-0.14062 0-0.41406 0.40234-0.60937 0.60156v-0.003907c-3.6328 3.8203-6.6094 8.2188-8.8008 13.016-2.9141 5.8203-5.7578 12.461-8.6055 19.5-1.4258 3.5898-2.9141 7.2578-4.4062 10.914-0.80469 1.957-1.6172 3.918-2.4375 5.8867l-1.875 5.0156v-0.003906c-1.2617 3.375-2.3242 6.8164-3.1797 10.312-0.28906 1.1836-0.49609 2.3828-0.61719 3.5938 0.20703-0.066407 0.34766-0.066407 0.54297-0.14063 1.5273-0.28125 3.0273-0.71094 4.4727-1.2852 4.7539-1.582 8.9414-4.5117 12.055-8.4375 3.5312-4 6.7266-8.2852 9.5547-12.809 4.5859-5.625 8.5938-11.699 11.961-18.129zm-132.35-76.605c0-3.8633 0-7.6484-0.066406-11.445-0.46875-5.1484-0.9375-10.164-1.4922-15.234-1.2188-4.7422-1.9609-9.6172-3.3828-14.156-0.88281-2.2422-1.6953-4.4062-2.5039-6.6367h0.003907c-0.70313-2.2422-1.6445-4.4023-2.8125-6.4414-4.2539-8.2383-9.5312-15.906-15.715-22.82-3.2539-3.3203-5.9609-6.9844-9.4883-10.031l-7.9219-7.3125-5.1484-4.8086-2.5781-2.3711-1.2852-1.1523-0.60938-0.60938c-0.13281-0.066406-0.27344-0.13281-0.27344-0.27344l0.27344-0.33594c3.3945-3.1797 6.7031-6.3672 10.031-9.4766l0.003906-0.003907c2.082-1.9844 4.0469-4.0898 5.8867-6.2969 0.81641-1.4922 1.6875-2.8125 2.4375-4.2656 0.61719-1.4141 1.0703-2.8945 1.3594-4.4062 1.0312-6.4375-0.30078-13.031-3.75-18.562-3.6367-6.4336-8.1992-12.297-13.547-17.402-5.2773-5.418-11.035-9.6836-17.062-15.18v0.003907c-21.957-17.824-40.973-38.988-56.352-62.719-3.2539-5.2109-6.5078-10.227-9.5547-15.102-3.1133-5.0156-6.0938-8.5977-8.9453-12.797l0.003906-0.003906c-2.7695-3.9102-5.9062-7.543-9.375-10.848l-4.6875-4.9414c-1.6328-1.5547-3.4609-2.8125-5.082-4.125v0.003907c-3.7422-3.2305-7.7539-6.1328-11.992-8.6719 11.359 12.145 21.059 25.738 28.848 40.434 6.9453 12.711 13.051 25.863 18.281 39.375 8.1602 21.07 14.926 42.656 20.258 64.613 4.3984 18.148 7.1797 32.812 9.0742 44.297 3.5898 22.961 3.6562 33.121 2.3711 33.328-1.4258 0.27344-4.1992-9.375-10.164-31.633-2.9805-11.109-6.8438-25.406-12.262-42.945h0.003906c-6.4336-21.113-13.984-41.867-22.621-62.176-5.4102-12.723-11.605-25.098-18.555-37.051-7.6797-13.59-17.105-26.113-28.039-37.258-11.441-12.281-26.586-20.488-43.125-23.359-4.3086-0.59375-8.6602-0.77734-13.004-0.54687l-3.75 0.46875c-0.21484 0.10547-0.44531 0.17578-0.68359 0.20703l-0.33594 0.14062c0 0.066406 0.14062 0.19531 0.20703 0.33594l0.46875 0.60938c2.4453 3.5156 5.0156 7.0391 7.5 10.633h-0.003906c7.4922 9.8242 13.324 20.805 17.27 32.512 0.9375 3.0469 1.4922 6.2266 2.2969 9.375 0.34766 1.5547 0.75 3.1875 1.0234 4.8086l0.46875 4.7422c0.27344 3.1797 0.60937 6.4297 0.9375 9.6172 0 3.3203 0.066406 6.5625 0.066406 9.8906-0.33594 13.125-2.3047 25.867-3.5898 38.336l-0.003906 0.003906c-1.8086 12.016-1.3281 24.266 1.4258 36.102 1.1914 5.5781 3.543 10.84 6.9102 15.441 4.5938 6.1641 8.582 12.758 11.914 19.688 1.0156 2.3945 1.7656 4.8945 2.2305 7.4531 0.32422 2.6328 0.30078 5.2969-0.0625 7.9219-0.50391 4.1602-1.3906 8.2656-2.6445 12.262-2.1523 5.9023-3.418 12.086-3.75 18.359 1.6484 13.668 6.3203 26.797 13.676 38.438 8.1016 13.285 14.016 27.785 17.523 42.945 3.7969 2.5039 7.2578 5.6914 10.914 8.6719 4.0195 3.9766 7.7266 8.2539 11.098 12.797 6.6602 9.1562 12.254 19.043 16.668 29.465 7.918 20.984 17.402 41.336 28.379 60.891 6.0273 8.8672 14.363 18.488 22.285 28.18v0.003906c8.4727 9.8672 16.238 20.324 23.23 31.293-2.3008-19.539-5.875-38.91-10.695-57.984-5.3516-21.562-9.4883-38.438-12.602-51.273-6.0938-26.016-6.4414-36.562-3.7969-37.32 2.6445-0.75781 7.9219 8.1953 17.539 33.055 4.7422 12.461 10.707 28.988 17.008 50.793 4.3242 14.738 7.8086 29.711 10.434 44.844 3.0312-14.031 5.1797-28.238 6.4336-42.535 1.5547-15.508 2.9805-31.152 5.625-46.527 1.1523-7.7266 3.0547-15.375 4.8828-22.895 2.1406-7.5508 4.832-14.934 8.0547-22.09 3.1875-7.0977 7.043-13.879 11.512-20.25 2.1641-2.707 4.332-5.418 6.4961-8.0625zm-24.723 476.5c2.5898-7.8047 4.1445-15.914 4.6328-24.121-1.3281-14.582-4.4766-28.941-9.375-42.742-9.5508-25.559-20.941-50.391-34.078-74.305-5.957 6.6953-12.504 12.836-19.566 18.355-4.5508 3.5469-9.3047 6.8242-14.23 9.8242-15.562 9.4883-26.062 25.746-38.727 39.227-8.5391 9.0078-16.191 17.203-23.102 24.516-14.363 14.297-25.742 25.199-35.082 32.812-19.039 15.102-27.367 19.312-29.195 17.211-3.7969-4.7422 17.605-24.523 78.836-95.102l-5.6914 1.2188v0.003906c-13.672 2.6016-27.625 3.4219-41.512 2.4375-14.699-1.1836-29.215-4.0156-43.285-8.4375-14.582-4.7344-28.703-10.789-42.188-18.086-1.4258-0.74219-2.8125-1.5547-4.1992-2.3047-13.246 11.723-23.707 26.258-30.617 42.543-0.74219 1.3516-0.53516 1.4922-0.9375 2.0898-0.19531 0.68359-0.40234 1.875-0.67578 2.6445-0.41406 2.1016-0.81641 4.3398-1.2188 6.7773s-0.75 4.9414-1.293 7.6484v0.003907c-0.23828 1.4375-0.55078 2.8672-0.9375 4.2734-0.48828 1.8594-1.1484 3.6719-1.9688 5.4102-2.2148 3.9453-5.5664 7.1367-9.6211 9.1484l-4.0586 1.7617-3.1875 1.2188c-3.8633 1.6211-4.5391 2.4375-5.4844 3.9297l-0.75 1.2188c-16.676 24.047-20.043 53.109-26.605 79.66-2.9023 13.066-7.1484 25.801-12.664 37.996-1.3594 2.9805-2.9805 5.7578-4.4062 8.5312-1.4258 2.7734-2.4375 5.0156-3.6562 7.5s-2.4375 4.7422-3.3203 7.1797-1.6953 4.875-2.5039 7.2461c-6.3672 19.098-5.4922 38.539-7.5859 56.352-0.27344 2.2305-0.47656 4.4062-0.68359 6.5625-0.40234 2.2305-0.74219 4.3984-1.0781 6.4961-0.33594 2.1016-0.75 4.1992-1.1523 6.3008v0.003906c-0.72656 2.5547-1.7031 5.0273-2.9141 7.3867-4.4258 5.8164-9.1523 11.398-14.156 16.727-1.5898 2.293-2.8008 4.8242-3.5898 7.5 1.0195-1.5078 2.1289-2.9531 3.3164-4.332 4.5469-5.2852 9.6328-10.078 15.18-14.297 10.312-8.1289 20.625-14.699 30.074-20.992 4.3906-2.8555 8.5977-5.9844 12.59-9.375l1.0859-0.9375 1.4258-1.5 2.8125-2.9727c1.875-1.9688 3.75-3.9375 5.5508-5.832 14.906-15.168 26.887-29.598 37.801-42.133 10.902-12.73 20.184-23.84 28.039-32.711 15.852-17.746 25.125-27.027 26.344-26.016s-5.7578 12.188-19.367 31.5c-6.7695 9.6836-15 21.562-24.992 35.223-10.227 13.547-21.871 29.258-35.832 45-1.7617 1.9688-3.5156 4.0039-5.2891 6.0938l-2.6328 3.1211-1.3594 1.5547c-0.80469 0.88281-1.2188 1.2188-1.875 1.8281v0.007812c-4.4453 4.1797-9.1758 8.0508-14.156 11.578-9.4766 6.9102-19.238 13.613-28.125 21.207-4.4336 3.582-8.4727 7.625-12.059 12.055-1.5859 1.918-2.9531 4.0078-4.0664 6.2344-0.33594 0.9375-1.0117 2.1641-1.1445 2.8125 0.066406 0.60938-0.27344 0.54297-0.47656 1.6211l0.20703 2.5117 0.066406 0.9375-0.003906 0.003907c0.25391 1.0508 0.57031 2.0898 0.9375 3.1094 0.5625 1.5078 1.5391 2.8203 2.8125 3.7969 3.75 2.0898 8.1289 2.7578 12.328 1.875 12.887-2.2695 25.348-6.4922 36.957-12.523 12.797-5.9609 25.602-13.125 38.605-20.727 6.5625-3.75 13.211-7.6484 19.848-11.586 3.4492-1.9609 6.8438-3.9297 10.633-5.9531v-0.003906c3.9492-2.043 8.0508-3.7891 12.262-5.2227 16.117-5.625 31.969-8.2578 46.734-12.59 7.0898-1.9336 13.992-4.5 20.625-7.6602 6.1328-2.9297 11.777-6.793 16.734-11.445 9.5977-10.949 17.828-23.027 24.516-35.961 2.3906-3.6641 5.043-7.1523 7.9297-10.438l4.7344-5.1484c1.5664-1.5547 2.9141-2.4375 4.4062-3.75l2.1641-1.7617 1.0859-0.9375 0.54297-0.41406 0.26172-0.19531 0.9375-0.75c0.13281-0.13281 4.9414-3.2422 4.9414-3.2422 3.1797-2.1758 6.4297-4.1328 9.6172-6.1016 12.805-7.7891 25.398-14.625 37.258-21.609h0.003906c22.332-11.465 41.836-27.75 57.094-47.684 1.6914-2.2734 3.2109-4.6758 4.5391-7.1797 1.4922-2.3125 2.8047-4.7344 3.9258-7.2461 1.1523-2.4375 2.3047-4.875 3.3945-7.2461 0.95703-2.7305 1.9414-5.4375 2.8867-8.2148zm-32.578-174.75c2.5508-6.0195 2.6719-12.793 0.33984-18.898-2.5664-5.0977-6.5391-9.3516-11.449-12.262-7.5117-4.4258-15.605-7.7734-24.047-9.957-6.0273-1.6211-9.207-2.7109-9.0742-3.4492 0.13281-0.74219 3.3945-1.0859 9.6836-0.75 6.8945 0.45703 13.699 1.7812 20.262 3.9375 2.4844-11.418 3.6914-23.074 3.5898-34.754-0.30469-11.965-3.6172-23.656-9.6289-34.004-6.5898-10.5-13.969-20.48-22.078-29.859-7.9883-9.8906-15.938-18.898-23.438-30.074-11.504-20.473-21.359-41.832-29.465-63.871-3.7422-9.207-8.5352-17.949-14.289-26.055-2.6758-3.6875-5.6172-7.1758-8.8008-10.434-3.207-2.9727-6.6562-5.6719-10.312-8.0625-1.875-1.1445-3.5898-2.3711-5.4844-3.3828-1.8945-1.0117-3.9297-1.875-5.8984-2.7109-3.8594-1.7031-7.8477-3.1094-11.926-4.1992-1.9922-0.69141-4.0586-1.1445-6.1562-1.3516-2.1016-0.33594-4.1328-0.60938-6.2344-0.9375-4.1211-0.67188-8.2852-1.0352-12.461-1.0859-16.66-0.88281-32.812 0.40234-48.562 1.0117-15.094 1.0156-30.258 0.26562-45.18-2.2305l-4.875-0.81641c1.9609 1.1523 3.8633 2.3047 5.6914 3.3203 19.688 11.652 32.711 12.535 32.512 14.363-0.074218 0.60938-3.3281 1.2188-9.6953 0.67578l0.003906-0.003906c-9.1797-1.1445-18.117-3.75-26.477-7.7148-11.043-4.6133-23.578-12.133-38.344-18.629-7.7656-3.8516-16.406-5.5938-25.059-5.0547-8.1523 0.96484-16.004 3.6641-23.023 7.9219-2.9141 1.7617-5.6914 3.6641-8.3359 5.625-3.2461 4.3594-6.125 8.9844-8.6055 13.82-5.0078 9.75-9.2812 20.727-14.062 32.438-2.3047 5.6992-5.3516 12.535-8.1953 18.02-1.9688 3.4609-3.6562 6.3008-5.625 9.375-2.125 3.0273-4.4102 5.9453-6.8438 8.7383-10.281 11.074-22.758 19.883-36.637 25.863-6.4414 3.1875-12.73 6.1016-18.422 9.5547-5.5742 3.2617-10.777 7.1211-15.516 11.512-1.2852 1.1992-2.5039 2.4688-3.6562 3.7969l-1.9688 2.1016-0.46875 0.46875c-0.074219 0.066406-0.61719 0.81641-0.61719 0.81641v-0.003906c-1.7773 2.5586-3.3477 5.2539-4.6875 8.0625-3.0742 6.207-5.4805 12.723-7.1836 19.438-0.82422 3.1719-1.3672 6.4141-1.6211 9.6836-0.41406 12.938 6.4961 9.4883 15.938 11.793l0.75 0.19531 0.33594 0.074219 1.6211 0.46875 1.875 0.54297 0.003907 0.003906c3.1523 0.70312 6.3867 1 9.6172 0.87891 4.9141-0.003906 9.8125 0.49609 14.625 1.4922 2.6914 0.72656 5.3398 1.6055 7.9297 2.6328 2.1016 1.1523 4.1914 2.3047 6.2891 3.5234l0.003906 0.003906c2.0664 1.1523 4.0391 2.4648 5.8945 3.9258 1.6211 1.4922 3.5234 3.0469 4.8086 4.4727 2.8125 2.9141 5.2109 5.6914 7.5 8.3359h0.003906c3.4648 4.6094 7.625 8.6523 12.336 11.98l0.40234 0.27344 0.54297 0.33594c7.1406 5.1953 15.633 8.207 24.453 8.6719 10.918-0.074219 21.816-1.043 32.578-2.9062 13.363-2.043 27.031-0.25781 39.422 5.1484l0.60937 0.26172 0.20703 0.14062h-0.003906c7.9219 5.4297 15.035 11.949 21.133 19.367 5.7578 6.6367 10.773 13.273 15.852 19.688l7.4453 9.4766 7.3867 9.0078c2.4375 2.8125 4.7422 5.082 7.0391 7.7266 2.2969 2.6445 5.832 5.1484 8.6719 7.7148l1.0859 0.9375c0.066406 0.066406 0.46875 0.33594 0.46875 0.33594l2.3711 1.6211 4.7422 3.2539c3.0469 2.2305 6.3008 4.1992 9.375 6.3008 6.3008 4.0586 12.602 7.9219 18.965 11.383l0.007812 0.003907c12.262 6.9688 25.125 12.816 38.438 17.473 24.168 8.5859 50.066 11.141 75.449 7.4453 2.9805-0.53516 5.8984-1.0117 8.8047-1.5547s5.5586-1.4258 8.2695-2.1016c5.3516-1.1523 11.25-3.6562 16.727-5.418l1.0234-0.40234 0.33594-0.066406c0.066407-0.074219 1.9609-0.9375 1.9609-0.9375 1.2188-0.53516 2.5117-1.0781 3.75-1.6875 2.4375-1.2188 4.8086-2.4375 7.1172-3.7969h-0.007812c4.5625-2.5273 8.9961-5.2812 13.277-8.2617 15.156-9.6797 27.258-23.465 34.891-39.75z"/>
  <path d="m525.59 554.62c7.8555 6.4961 11.785 10.633 10.902 11.992-1.875 2.9141-21.805-7.2461-53.914-22.5v-0.003906c-40.797-20.289-84.551-33.984-129.64-40.574-24.73-2.6641-49.68-2.5-74.371 0.47656-20.438 2.4258-40.719 5.9961-60.75 10.699-17.344 4.2109-31.367 7.6602-41.043 9.9648-9.8906 2.2305-15.648 2.8125-16.191 1.2852-0.54297-1.5273 4.125-4.8086 13.07-9.6172l-0.003906-0.003906c12.793-6.625 26.031-12.352 39.621-17.137 20.305-7.1758 41.203-12.543 62.453-16.051 26.363-4.4492 53.215-5.2266 79.793-2.3047 26.508 3.2539 52.469 9.9961 77.211 20.055 19.949 8.0273 39.188 17.723 57.508 28.984 12.324 7.4453 24.133 15.707 35.352 24.734z"/>
 </g>
</svg>
